# xmcd CD database file
#
# Track frame offsets:
#	150
#	17785
#	32035
#	48912
#	64817
#	79772
#	93752
#	107190
#	122767
#	138607
#	153850
#	169159
#	184325
#	198662
#	214650
#	229305
#	242287
#	256725
#	272942
#	287335
#	302950
#	314145
#	314787
#	315430
#	316372
#	317377
#	318132
#	319150
#	319995
#	320977
#	321867
#	322917
#	323745
#	324867
#	325710
#	326317
#	327150
#	327955
#	329077
#	329780
#	330647
#	331347
#	332252
#
# Disc length: 4442 seconds
#
# Revision: 0
# Processed by: cddbd v1.5.2PL0 Copyright (c) Steve Scherf et al.
# Submitted via: CDex 1.70beta2
#
DISCID=7e11582b
DTITLE=Jones Country - Jones Country Recurrent CHC-1171
DYEAR=0000
DGENRE=Country
TTITLE0=Mavericks and Paco Jimenez/All You Ever Do Is Bring Me Down
TTITLE1=Ricochet/Daddy's Money
TTITLE2=Sawyer Brown/Treat Her Right
TTITLE3=David Lee Murphy/Every Time I Get Around You
TTITLE4=Rhett Akins/Don't Get Me Started
TTITLE5=Tracy Lawrence/Time Marches On
TTITLE6=George Strait/Blue Sky
TTITLE7=Brooks and Dunn/My Maria
TTITLE8=Vince Gill/High Lonesome Sound
TTITLE9=Alan Jackson/Home
TTITLE10=Diamond Rio/That's What I Get For Loving You
TTITLE11=Neal McCoyThen You Can Tell Me Goodbye
TTITLE12=Shania Twain/No One Needs To Know
TTITLE13=Lee Roy Parnell/Givin' Water To A Drowning Man
TTITLE14=Wade Hayes/On A Good Night
TTITLE15=LeAnn Rimes/Blue
TTITLE16=Lonestar/Runnin' Away With My Heart
TTITLE17=Rick Trevino/Learning As You Go
TTITLE18=Mark Wills/Jacob's Ladder
TTITLE19=Pam Tillis/It's Lonely Out There
TTITLE20=Garth Brooks/It's Midnight Cinderella
TTITLE21=Production Track 22
TTITLE22=Production Track 23
TTITLE23=Production Track 24
TTITLE24=Production Track 25
TTITLE25=Production Track 26
TTITLE26=Production Track 27
TTITLE27=Production Track 28
TTITLE28=Production Track 29
TTITLE29=Production Track 30
TTITLE30=Production Track 31
TTITLE31=Production Track 32
TTITLE32=Production Track 33
TTITLE33=Production Track 34
TTITLE34=Production Track 35
TTITLE35=Production Track 36
TTITLE36=Production Track 37
TTITLE37=Production Track 38
TTITLE38=Production Track 39
TTITLE39=Production Track 40
TTITLE40=Production Track 41
TTITLE41=Production Track 42
TTITLE42=Production Track 43
EXTD=YEAR: 0000
EXTT0=
EXTT1=
EXTT2=
EXTT3=
EXTT4=
EXTT5=
EXTT6=
EXTT7=
EXTT8=
EXTT9=
EXTT10=
EXTT11=
EXTT12=
EXTT13=
EXTT14=
EXTT15=
EXTT16=
EXTT17=
EXTT18=
EXTT19=
EXTT20=
EXTT21=
EXTT22=
EXTT23=
EXTT24=
EXTT25=
EXTT26=
EXTT27=
EXTT28=
EXTT29=
EXTT30=
EXTT31=
EXTT32=
EXTT33=
EXTT34=
EXTT35=
EXTT36=
EXTT37=
EXTT38=
EXTT39=
EXTT40=
EXTT41=
EXTT42=
PLAYORDER=
